<?xml version="1.0" encoding="utf-8"?>
<!-- Generator: Adobe Illustrator 25.2.0, SVG Export Plug-In . SVG Version: 6.00 Build 0)  -->
<svg version="1.1" id="Layer_1" xmlns="http://www.w3.org/2000/svg" xmlns:xlink="http://www.w3.org/1999/xlink" x="0px" y="0px"
	 viewBox="0 0 383.3 383.79" style="enable-background:new 0 0 383.3 383.79;" xml:space="preserve">
<g>
	<path d="M36.1,0c3.16,0,6.31,0.41,9.34,1.27C51.08,2.87,56.5,5,61.35,8.58c11.48,8.48,16.92,20.21,18.83,34
		c0.79,5.67,1.99,11.29,3.07,17.32c1.64,0,3.23,0,4.81,0c83.33,0,166.67-0.03,250,0.02c26.03,0.02,46.21,20.99,45.21,46.91
		c-0.14,3.58-0.82,7.2-1.73,10.67c-9.62,36.85-19.3,73.69-29.03,110.51c-5.54,20.95-24.5,35.53-46.16,35.54
		c-67.37,0.01-134.73,0-202.1,0.03c-2.22,0-4.53,0.11-6.64,0.71c-6.91,1.93-11.31,8.57-10.64,15.68
		c0.68,7.14,6.59,12.94,13.81,13.48c1.49,0.11,2.99,0.05,4.49,0.05c77.84,0,155.69,0,233.53,0.01c1.86,0,3.78-0.06,5.58,0.32
		c10.62,2.24,15.28,13.93,9.44,23.16c-0.76,1.2-1.1,3.26-0.61,4.54c9.4,24.87-3.27,51.83-28.18,59.68
		c-25.15,7.92-51.07-6.99-57.35-33c-1.98-8.21-1.17-16.32,1.32-24.56h-94.3c5.64,24.22-0.99,43.61-23.75,55.14
		c-16.53,8.38-33.08,6.05-47.29-5.64c-16.29-13.4-20.23-30.94-13.85-51.09c-19.98-7.24-32.09-21-32.67-42.65
		c-0.53-19.84,9.7-33.66,27.41-42.54c-2.31-12.94-4.62-25.92-6.95-38.9c-8.38-46.73-16.77-93.46-25.16-140.19
		c-0.95-5.27-1.83-10.56-2.93-15.81c-1.5-7.18-7.3-11.88-14.68-12c-5.36-0.09-10.74-0.28-16.09,0.04
		C9.46,30.56,3.1,26.96,0.07,17.97C0.05,16.01,0.02,14.17,0,12.2c0.07-0.24,0.15-0.48,0.23-0.71C2.61,4.51,9.4,0,16.77,0H36.1z
		 M88.61,89.85c8.64,48.13,17.21,95.88,25.8,143.75c1.55,0,2.67,0,3.78,0c62.74,0,125.48,0,188.21,0c9.72,0,14.64-3.85,17.13-13.3
		c9.61-36.49,19.22-72.97,28.84-109.46c3.3-12.51-3.19-20.99-16.09-20.99c-81.07,0-162.15,0-243.22,0
		C91.71,89.85,90.35,89.85,88.61,89.85z M146.78,338.74c0.16-8.23-6.44-15.13-14.64-15.28c-8.24-0.16-15.12,6.44-15.28,14.64
		c-0.16,8.24,6.44,15.13,14.64,15.29C139.72,353.54,146.63,346.92,146.78,338.74z M326.45,338.39c-0.02-8.22-6.77-14.95-14.99-14.93
		c-8.23,0.01-14.94,6.75-14.93,14.99c0.01,8.22,6.77,14.95,14.99,14.94C319.73,353.37,326.47,346.6,326.45,338.39z"/>
	<path d="M221.66,146.75c9.6,0,19.19-0.02,28.79,0.01c9.42,0.03,16.12,6.27,16.12,14.96c0,8.69-6.7,14.96-16.12,14.97
		c-19.19,0.03-38.38,0.03-57.57,0c-9.41-0.01-16.12-6.29-16.12-14.97c0-8.69,6.7-14.94,16.12-14.96
		C202.47,146.73,212.06,146.75,221.66,146.75z"/>
</g>
</svg>
