<?xml version="1.0" encoding="utf-8"?>
<!-- Generator: Adobe Illustrator 25.2.0, SVG Export Plug-In . SVG Version: 6.00 Build 0)  -->
<svg version="1.1" id="Layer_1" xmlns="http://www.w3.org/2000/svg" xmlns:xlink="http://www.w3.org/1999/xlink" x="0px" y="0px"
	 viewBox="0 0 706.44 706.53" style="enable-background:new 0 0 706.44 706.53;" xml:space="preserve">
<g>
	<path d="M0,193.16c2.65-8.26,4.49-16.89,8.1-24.71c16.29-35.3,53.98-54.2,92.28-46.84c36.58,7.03,64.35,38.87,66.95,76.82
		c0.22,3.21,0.3,6.43,0.3,9.65c0.01,148.28,0.05,296.57-0.09,444.85c-0.01,6.81-0.57,13.91-2.53,20.38
		c-5.85,19.35-24.18,32.78-44.61,33.01c-24.37,0.28-48.74,0.28-73.1,0.01c-20.79-0.23-38.51-13.76-44.97-33.6
		c-0.69-2.13-1.54-4.22-2.32-6.33C0,508.65,0,350.91,0,193.16z"/>
	<path d="M608.45,0c11.93,5.51,15.41,14.97,15.37,27.79c-0.35,97.44-0.19,194.89-0.19,292.33c0,2.74,0,5.47,0,8.69
		c-110.61,0-220.78,0-331.8,0c0-3.08,0-5.78,0-8.48c0-97.9,0.13-195.81-0.16-293.71c-0.04-12.72,3.9-21.81,16-26.62
		C407.93,0,508.19,0,608.45,0z M456,82.78c-21.36,0-42.73-0.05-64.09,0.02c-13.41,0.04-22.53,8.55-22.48,20.76
		c0.05,12.22,9.13,20.58,22.66,20.59c42.04,0.05,84.08,0.05,126.12,0c13.32-0.02,22.66-8.69,22.6-20.76
		c-0.05-12.05-9.37-20.55-22.78-20.59C497.36,82.74,476.68,82.78,456,82.78z M454.74,206.96c20.9,0,41.81,0.03,62.71-0.01
		c13.96-0.02,23.37-8.41,23.36-20.71c-0.01-12.29-9.42-20.65-23.41-20.66c-41.58-0.03-83.16-0.03-124.74,0
		c-14.05,0.01-23.25,8.27-23.23,20.71c0.01,12.44,9.2,20.64,23.28,20.66C413.39,206.98,434.06,206.96,454.74,206.96z M454.77,289.74
		c21.13,0,42.27,0.04,63.4-0.02c13.34-0.04,22.67-8.67,22.63-20.74c-0.04-12.06-9.34-20.6-22.75-20.62
		c-42.04-0.05-84.08-0.05-126.12,0c-13.43,0.02-22.54,8.53-22.51,20.74c0.03,12.2,9.14,20.58,22.63,20.62
		C412.96,289.78,433.87,289.74,454.77,289.74z"/>
	<path d="M209.03,203.01c14.17,0,27.25,0,41.23,0c0,55.67,0,111.16,0,167.16c138.5,0,276.1,0,414.45,0c0-55.48,0-110.96,0-167.06
		c8.68,0,16.71-0.71,24.56,0.18c9.49,1.08,16.34,9.38,17.07,18.97c0.17,2.29,0.07,4.6,0.07,6.9c0,150.37,0,300.75,0,451.12
		c0,18.92-7.26,26.14-26.28,26.14c-148.3,0-296.61,0-444.91,0c-18.98,0-26.19-7.21-26.19-26.25c-0.01-156.35,0-312.7,0-469.05
		C209.03,208.62,209.03,206.12,209.03,203.01z M582.04,453.86c6.88,0,13.77,0.16,20.65-0.04c12.08-0.35,21.12-9.56,20.91-21.05
		c-0.2-11.31-9.1-20.08-20.95-20.24c-13.76-0.18-27.54-0.19-41.3,0c-11.9,0.16-20.65,8.88-20.79,20.28
		c-0.15,11.7,8.63,20.67,20.83,21.02C568.26,454.03,575.15,453.87,582.04,453.86z M582.37,495.28c-7.11,0-14.23-0.15-21.34,0.04
		c-11.52,0.31-20.16,8.83-20.47,19.9c-0.32,11.47,8.08,20.97,19.76,21.3c14.44,0.41,28.92,0.39,43.36,0
		c11.28-0.31,19.9-9.66,19.91-20.59c0.01-11.31-8.84-20.29-20.57-20.62C596.14,495.13,589.26,495.28,582.37,495.28z M292.25,433.36
		c0.09,11.39,9.35,20.55,20.71,20.48c11.1-0.07,20.6-9.78,20.45-20.91c-0.15-11.26-9.62-20.51-20.89-20.4
		C301.12,412.64,292.15,421.86,292.25,433.36z M375.03,432.82c-0.14,11.48,8.74,20.75,20.17,21.02
		c11.07,0.26,20.76-9.14,20.99-20.37c0.23-11.18-9.08-20.76-20.35-20.93C384.42,412.36,375.17,421.37,375.03,432.82z M457.82,433.36
		c0.09,11.4,9.34,20.55,20.7,20.48c11.1-0.07,20.61-9.78,20.45-20.91c-0.15-11.26-9.62-20.5-20.89-20.4
		C466.7,412.63,457.72,421.86,457.82,433.36z M292.24,515.6c-0.14,11.48,8.81,20.81,20.16,21.02c11.15,0.2,20.77-9.13,21-20.36
		c0.22-11.18-9.09-20.76-20.35-20.93C301.63,495.15,292.39,504.15,292.24,515.6z M395.81,495.32c-11.42-0.16-20.64,8.87-20.77,20.31
		c-0.13,11.48,8.85,20.81,20.19,20.98c11.16,0.17,20.77-9.18,20.97-20.4C416.39,505.03,407.07,495.48,395.81,495.32z M478.45,495.32
		c-11.41-0.08-20.56,8.99-20.63,20.46c-0.07,11.45,9.01,20.75,20.34,20.84c11.16,0.08,20.72-9.35,20.82-20.55
		C499.07,504.86,489.71,495.4,478.45,495.32z M375.03,598.48c-0.1,11.48,8.92,20.79,20.26,20.92c11.18,0.13,20.74-9.23,20.9-20.47
		c0.16-11.19-9.19-20.71-20.45-20.83C384.31,577.98,375.13,587.02,375.03,598.48z M457.82,598.44
		c-0.12,11.48,8.87,20.79,20.22,20.96c11.17,0.16,20.75-9.18,20.94-20.42c0.19-11.18-9.15-20.73-20.41-20.87
		C467.14,577.96,457.93,586.98,457.82,598.44z M292.25,598.54c-0.07,11.47,8.98,20.76,20.32,20.86c11.17,0.1,20.71-9.31,20.83-20.53
		c0.12-11.22-9.22-20.68-20.5-20.77C301.47,578.01,292.32,587.07,292.25,598.54z"/>
</g>
</svg>
