<?xml version="1.0" standalone="no"?>
<!DOCTYPE svg PUBLIC "-//W3C//DTD SVG 20010904//EN"
 "http://www.w3.org/TR/2001/REC-SVG-20010904/DTD/svg10.dtd">
<svg version="1.0" xmlns="http://www.w3.org/2000/svg"
 width="508.000000pt" height="678.000000pt" viewBox="0 0 508.000000 678.000000"
 preserveAspectRatio="xMidYMid meet">

<g transform="translate(0.000000,678.000000) scale(0.100000,-0.100000)"
fill="#000000" stroke="none">
<path d="M2300 6769 c-605 -62 -1152 -326 -1575 -760 -392 -403 -622 -873
-706 -1444 -20 -133 -17 -475 4 -600 109 -628 514 -1502 1116 -2410 240 -362
531 -752 751 -1005 117 -135 326 -346 411 -416 81 -66 189 -124 233 -124 214
0 898 766 1462 1637 617 952 990 1794 1065 2397 15 124 7 409 -16 566 -22 146
-82 387 -130 516 -86 230 -237 498 -399 704 -87 111 -327 345 -441 431 -390
292 -829 461 -1320 509 -119 11 -336 11 -455 -1z m415 -839 c289 -33 567 -136
795 -298 122 -86 326 -290 412 -412 122 -172 232 -423 272 -620 93 -463 10
-901 -245 -1285 -100 -149 -302 -353 -452 -454 -202 -136 -451 -237 -686 -278
-133 -24 -431 -23 -558 0 -759 141 -1316 733 -1403 1492 -112 984 664 1853
1665 1864 61 0 151 -4 200 -9z"/>
</g>
</svg>
