<svg xmlns="http://www.w3.org/2000/svg" width="39.897" height="42.931" viewBox="0 0 39.897 42.931">
  <path id="Tel-01" d="M17.933,14.136c2.4-2.715-.209-6.37-1.775-8.876C15.218,3.8,13.965,1.814,12.085,1.5c-1.88-.209-3.446,1.775-4.595,2.82A13.145,13.145,0,0,0,3,14.032v.522a28.349,28.349,0,0,0,1.358,6.579,29.736,29.736,0,0,0,2.924,5.743,53.463,53.463,0,0,0,8.876,10.547c3.342,3.028,7.1,5.639,11.591,6.683A13.556,13.556,0,0,0,39.34,41.391c1.149-.94,3.446-2.4,3.55-4.073s-1.253-3.133-2.4-4.073c-2.506-2.193-6.161-5.952-9.607-3.237-1.358,1.044-2.715,3.133-4.49,3.342-1.775.313-3.446-.94-4.7-1.984a28.311,28.311,0,0,1-7.31-8.772c-.731-1.462-1.358-3.342-.313-4.8C15.009,16.12,16.784,15.494,17.933,14.136Z" transform="translate(-3 -1.485)" fill="#0043b4"/>
</svg>
